HIERARCHY
ROOT Hips
{
	OFFSET 0.000000 0.000000 0.000000
	CHANNELS 6 Xposition Yposition Zposition Xrotation Yrotation Zrotation
	JOINT LeftUpLeg_virtual
	{
		OFFSET 0.000000 0.000000 0.000000
		CHANNELS 3 Xrotation Yrotation Zrotation
		JOINT LeftUpLeg
		{
			OFFSET 11.394100 -6.187798 -0.413800
			CHANNELS 3 Xrotation Yrotation Zrotation
			JOINT LeftLeg
			{
				OFFSET 0.430247 -32.302673 3.732800
				CHANNELS 3 Xrotation Yrotation Zrotation
				JOINT LeftFoot
				{
					OFFSET -0.430247 -48.264931 -6.423300
					CHANNELS 3 Xrotation Yrotation Zrotation
					JOINT LeftToeBase
					{
						OFFSET 4.230900 -16.068199 23.438400
						CHANNELS 3 Xrotation Yrotation Zrotation
						JOINT LeftToe_End
						{
							OFFSET 4.510700 0.695400 19.974600
							CHANNELS 3 Xrotation Yrotation Zrotation
							End Site
							{
								OFFSET 0 0 0
							}
						}
					}
				}
			}
		}
	}
	JOINT RightUpLeg_virtual
	{
		OFFSET 0.000000 0.000000 0.000000
		CHANNELS 3 Xrotation Yrotation Zrotation
		JOINT RightUpLeg
		{
			OFFSET -11.333700 -6.187798 -0.413800
			CHANNELS 3 Xrotation Yrotation Zrotation
			JOINT RightLeg
			{
				OFFSET -0.430392 -32.302628 3.733000
				CHANNELS 3 Xrotation Yrotation Zrotation
				JOINT RightFoot
				{
					OFFSET 0.430392 -48.264973 -6.423500
					CHANNELS 3 Xrotation Yrotation Zrotation
					JOINT RightToeBase
					{
						OFFSET -4.230900 -16.068199 23.438400
						CHANNELS 3 Xrotation Yrotation Zrotation
						JOINT RightToe_End
						{
							OFFSET -4.510700 0.695400 19.974600
							CHANNELS 3 Xrotation Yrotation Zrotation
							End Site
							{
								OFFSET 0 0 0
							}
						}
					}
				}
			}
		}
	}
	JOINT Spine_virtual
	{
		OFFSET 0.000000 0.000000 0.000000
		CHANNELS 3 Xrotation Yrotation Zrotation
		JOINT Spine
		{
			OFFSET -0.002400 12.777504 0.315300
			CHANNELS 3 Xrotation Yrotation Zrotation
			JOINT Spine1
			{
				OFFSET -0.002067 5.816869 0.032633
				CHANNELS 3 Xrotation Yrotation Zrotation
				JOINT Spine1_split
				{
					OFFSET -0.002067 5.816869 0.032633
					CHANNELS 3 Xrotation Yrotation Zrotation
					JOINT Spine2
					{
						OFFSET -0.002067 5.816869 0.032633
						CHANNELS 3 Xrotation Yrotation Zrotation
						JOINT Neck_virtual
						{
							OFFSET 0.000000 0.000000 0.000000
							CHANNELS 3 Xrotation Yrotation Zrotation
							JOINT Neck
							{
								OFFSET -0.003700 21.199493 -0.826900
								CHANNELS 3 Xrotation Yrotation Zrotation
								JOINT Head
								{
									OFFSET 0.000000 20.442200 4.834800
									CHANNELS 3 Xrotation Yrotation Zrotation
									JOINT HeadTop_End
									{
										OFFSET 0.000000 34.668396 4.968400
										CHANNELS 3 Xrotation Yrotation Zrotation
										End Site
										{
											OFFSET 0 0 0
										}
									}
								}
							}
						}
						JOINT LeftShoulder_virtual
						{
							OFFSET 0.000000 0.000000 0.000000
							CHANNELS 3 Xrotation Yrotation Zrotation
							JOINT LeftShoulder
							{
								OFFSET 3.288150 8.794197 -1.372250
								CHANNELS 3 Xrotation Yrotation Zrotation
								JOINT LeftShoulder_split
								{
									OFFSET 3.288150 8.794197 -1.372250
									CHANNELS 3 Xrotation Yrotation Zrotation
									JOINT LeftArm
									{
										OFFSET 11.953299 -2.279007 -0.146200
										CHANNELS 3 Xrotation Yrotation Zrotation
										JOINT LeftForeArm
										{
											OFFSET 18.448900 0.000000 0.000000
											CHANNELS 3 Xrotation Yrotation Zrotation
											JOINT LeftHand
											{
												OFFSET 29.527798 0.000000 0.000000
												CHANNELS 3 Xrotation Yrotation Zrotation
												End Site
												{
													OFFSET 0 0 0
												}
											}
										}
									}
								}
							}
						}
						JOINT RightShoulder_virtual
						{
							OFFSET 0.000000 0.000000 0.000000
							CHANNELS 3 Xrotation Yrotation Zrotation
							JOINT RightShoulder
							{
								OFFSET -3.249400 8.794197 -1.372250
								CHANNELS 3 Xrotation Yrotation Zrotation
								JOINT RightShoulder_split
								{
									OFFSET -3.249400 8.794197 -1.372250
									CHANNELS 3 Xrotation Yrotation Zrotation
									JOINT RightArm
									{
										OFFSET -11.953299 -2.279007 -0.146200
										CHANNELS 3 Xrotation Yrotation Zrotation
										JOINT RightForeArm
										{
											OFFSET -18.448900 0.000000 0.000000
											CHANNELS 3 Xrotation Yrotation Zrotation
											JOINT RightHand
											{
												OFFSET -29.527802 0.000000 0.000000
												CHANNELS 3 Xrotation Yrotation Zrotation
												End Site
												{
													OFFSET 0 0 0
												}
											}
										}
									}
								}
							}
						}
					}
				}
			}
		}
	}
}
MOTION
Frames: 4
Frame Time: 0.03333333
-11.167194 96.687881 87.708557 0.000000 0.000000 0.000000 24.013654 13.374592 -8.288137 -36.319910 -7.061020 -5.011674 29.378577 9.419281 -2.261977 -14.228456 4.848400 8.073139 -4.809682 0.987147 -1.973504 0.000000 0.000000 0.000000 24.440633 12.967915 -8.383305 -57.698610 -7.501792 -12.140562 48.079658 -1.860962 -0.918890 16.057906 2.994425 11.998259 -23.338850 3.209242 -3.316735 0.000000 0.000000 0.000000 24.542526 9.634522 -8.774779 8.093118 1.143721 -1.952254 0.511489 2.436555 -0.458835 0.628047 0.302300 -0.227087 0.000000 0.000000 0.000000 -0.113356 2.437741 -0.351101 -13.413259 0.214986 0.022640 -8.727216 3.704843 -3.295913 0.000000 0.000000 0.000000 -0.867216 2.756140 -0.612299 0.925405 -1.392399 -19.232375 -0.788397 2.678995 -1.632899 16.022761 -6.779601 -44.846595 2.622052 -64.426183 1.103150 0.000000 0.000000 0.000000 -0.175470 2.710128 -0.554223 1.107339 3.829501 18.482845 5.174310 4.968546 -2.859231 11.798601 -12.612183 50.427242 -1.726392 68.624973 2.096217 0.000000 0.000000 0.000000 
-10.722892 95.424110 93.880623 0.000000 0.000000 0.000000 24.248447 13.342502 -8.675719 -29.797715 -10.904697 -3.134792 26.642481 9.669888 -2.568110 -18.642699 2.882571 6.865349 -3.203662 1.122206 -0.609626 0.000000 0.000000 0.000000 24.846905 14.134271 -9.310814 -65.559455 -4.470416 -12.353519 45.654029 -2.594455 -0.358545 18.270095 3.746720 13.390777 -19.650130 2.722340 -2.194267 0.000000 0.000000 0.000000 23.891283 9.713826 -8.937764 8.011200 0.533763 -1.931710 0.659937 2.394095 -0.372973 0.882529 0.462170 0.049996 0.000000 0.000000 0.000000 -0.056412 2.413849 -0.313531 -13.675386 -0.008154 0.088908 -8.777491 3.115551 -3.042420 0.000000 0.000000 0.000000 -0.731408 2.705625 -0.517873 0.871990 -1.230765 -18.997577 -1.022739 2.102938 -1.314443 16.852892 -7.463689 -45.067757 2.665656 -64.326291 1.152269 0.000000 0.000000 0.000000 -0.020799 2.675472 -0.573999 1.076855 3.702654 18.108811 5.312205 5.231104 -2.070379 12.026030 -12.395323 50.100991 -2.002810 68.462230 2.176605 0.000000 0.000000 0.000000 
-10.356914 93.361427 99.629669 0.000000 0.000000 0.000000 24.306411 13.653893 -9.246188 -24.594943 -14.881034 -0.253242 26.135077 7.915480 -2.605650 -19.126316 -0.045846 3.036748 -5.731896 1.013302 2.618806 0.000000 0.000000 0.000000 24.919826 15.098458 -10.237424 -73.205148 -2.389451 -12.284228 43.404572 -3.885954 0.482918 19.149625 3.680242 13.510322 -14.074426 2.213422 -1.138673 0.000000 0.000000 0.000000 23.130308 10.151586 -9.124838 8.055300 -0.154245 -1.974200 0.832539 2.382779 -0.307172 1.074073 0.739208 0.334366 0.000000 0.000000 0.000000 -0.028727 2.388153 -0.304678 -13.750228 -0.232520 0.293165 -8.863414 2.409880 -2.802993 0.000000 0.000000 0.000000 -0.576420 2.662143 -0.458857 0.804409 -1.017058 -18.619975 -1.095517 1.336270 -0.816942 17.512296 -7.663007 -45.736149 2.569509 -64.680737 1.199815 0.000000 0.000000 0.000000 0.165651 2.637536 -0.604839 1.070302 3.592433 17.690026 5.300582 5.332020 -1.284055 12.492239 -12.063160 50.013739 -2.016723 68.370351 1.964718 0.000000 0.000000 0.000000 
-10.217110 91.058983 105.145294 0.000000 0.000000 0.000000 24.461025 14.341562 -9.930598 -19.320701 -17.630054 2.681560 26.338876 6.812388 -2.550390 -19.379152 -2.860600 0.211329 -9.009959 0.716309 5.359127 0.000000 0.000000 0.000000 24.868225 16.267123 -10.946030 -80.041184 -1.095700 -11.966229 41.522871 -5.386751 1.384276 18.323166 2.810180 12.058597 -7.352619 1.935444 -0.570468 0.000000 0.000000 0.000000 22.423748 11.088419 -9.340988 8.234514 -0.932514 -1.955338 1.026452 2.329177 -0.253109 1.191007 1.061505 0.708212 0.000000 0.000000 0.000000 -0.056833 2.304318 -0.287892 -13.615961 -0.343280 0.476631 -9.043747 1.824905 -2.717406 0.000000 0.000000 0.000000 -0.384306 2.575436 -0.414688 0.743740 -0.804709 -18.185222 -1.008508 0.516654 -0.356273 17.915562 -7.384148 -46.784706 2.308320 -65.101948 1.223198 0.000000 0.000000 0.000000 0.363089 2.544149 -0.638337 1.090115 3.487742 17.279638 5.136642 5.292675 -0.469029 13.302896 -11.584367 50.138875 -1.829851 68.359299 1.558973 0.000000 0.000000 0.000000 
